# Generated unit cylinder — gray-box primitive (#44)
o Cylinder
v 0.50000 -0.50000 0.00000
v 0.43301 -0.50000 0.25000
v 0.25000 -0.50000 0.43301
v -0.00000 -0.50000 0.50000
v -0.25000 -0.50000 0.43301
v -0.43301 -0.50000 0.25000
v -0.50000 -0.50000 -0.00000
v -0.43301 -0.50000 -0.25000
v -0.25000 -0.50000 -0.43301
v 0.00000 -0.50000 -0.50000
v 0.25000 -0.50000 -0.43301
v 0.43301 -0.50000 -0.25000
v 0.50000 0.50000 0.00000
v 0.43301 0.50000 0.25000
v 0.25000 0.50000 0.43301
v -0.00000 0.50000 0.50000
v -0.25000 0.50000 0.43301
v -0.43301 0.50000 0.25000
v -0.50000 0.50000 -0.00000
v -0.43301 0.50000 -0.25000
v -0.25000 0.50000 -0.43301
v 0.00000 0.50000 -0.50000
v 0.25000 0.50000 -0.43301
v 0.43301 0.50000 -0.25000
v 0.0 -0.50000 0.0
v 0.0 0.50000 0.0
f 1 13 14 2
f 2 14 15 3
f 3 15 16 4
f 4 16 17 5
f 5 17 18 6
f 6 18 19 7
f 7 19 20 8
f 8 20 21 9
f 9 21 22 10
f 10 22 23 11
f 11 23 24 12
f 12 24 13 1
f 25 1 2
f 25 2 3
f 25 3 4
f 25 4 5
f 25 5 6
f 25 6 7
f 25 7 8
f 25 8 9
f 25 9 10
f 25 10 11
f 25 11 12
f 25 12 1
f 26 14 13
f 26 15 14
f 26 16 15
f 26 17 16
f 26 18 17
f 26 19 18
f 26 20 19
f 26 21 20
f 26 22 21
f 26 23 22
f 26 24 23
f 26 13 24
